<svg xmlns="http://www.w3.org/2000/svg" viewBox="0 0 128 128">
  <!-- Fond circulaire -->
  <circle cx="64" cy="64" r="60" fill="#4285F4" />
  
  <!-- Page web stylisée -->
  <rect x="32" y="28" width="64" height="72" rx="4" fill="white" />
  
  <!-- Éléments de la page web -->
  <rect x="38" y="36" width="40" height="6" rx="2" fill="#E1E1E1" />
  <rect x="38" y="46" width="52" height="4" rx="2" fill="#E1E1E1" />
  <rect x="38" y="54" width="48" height="4" rx="2" fill="#E1E1E1" />
  <rect x="38" y="62" width="52" height="4" rx="2" fill="#E1E1E1" />
  <rect x="38" y="70" width="45" height="4" rx="2" fill="#E1E1E1" />
  <rect x="38" y="78" width="50" height="4" rx="2" fill="#E1E1E1" />
  <rect x="38" y="86" width="42" height="4" rx="2" fill="#E1E1E1" />
  
  <!-- Flèche de transformation -->
  <path d="M64 104 L80 124 L48 124 Z" fill="#34A853" />
  
  <!-- Élément de résumé -->
  <circle cx="92" cy="42" r="12" fill="#FBBC05" />
  <path d="M86 42 L90 46 L98 38" stroke="white" stroke-width="2.5" fill="none" />
  
  <!-- Loupe symbolisant le scrapping -->
  <circle cx="38" cy="88" r="9" fill="none" stroke="#EA4335" stroke-width="3" />
  <line x1="44" y1="94" x2="48" y2="98" stroke="#EA4335" stroke-width="3" stroke-linecap="round" />
</svg>
